#!OML:ASF E:\Mandelcareful walks\Project 1\Capture day 1\Session 1\Subject1.ASF
:FULLY-SPECIFIED
:DEGREES
347
root -23.6255 10.2879 0.153495 206.915 81.6911 181.916
lowerback 50.2495 1.67229 0.138875
upperback 9.68568 3.54353 -3.30912
thorax -9.56888 2.46794 -5.34172
lowerneck -34.3714 -5.82021 -4.17493
upperneck 3.74257 -5.37408 1.09696
head 6.3557 -2.30732 0.273968
rclavicle 9.54166e-015 6.55989e-014
rhumerus 43.3897 -12.7377 -87.6368
rradius 12.4831
rwrist 11.0695
rhand -27.5157 -37.3724
rfingers 7.12502
rthumb -0.918118 652.65
lclavicle 9.54166e-015 6.55989e-014
lhumerus 59.7805 -18.461 12.842
lradius 45.0643
lwrist 14.1118
lhand -29.5031 -18.7006
lfingers 7.12502
lthumb -2.83757 11.2603
rfemur -86.1861 -54.1126 12.0949
rtibia 129.191
rfoot -16.5607 29.1114
rtoes -12.7593
lfemur -94.635 36.8327 -32.4864
ltibia 128.93
lfoot -33.7036 -3.34692
ltoes -21.2723
348
root -23.7124 10.1821 0.155519 209.249 81.8069 183.316
lowerback 46.9127 1.8314 0.211495
upperback 10.9194 3.76264 -2.99528
thorax -8.89797 2.51313 -5.12082
lowerneck -34.1951 -5.9447 -4.61583
upperneck 3.67867 -5.42447 1.49083
head 6.33665 -2.30205 0.470367
rclavicle -2.14687e-014 -4.35338e-014
rhumerus 43.5877 -13.2877 -87.9651
rradius 12.3261
rwrist 12.049
rhand -27.3143 -37.2601
rfingers 7.12502
rthumb -0.723616 652.761
lclavicle -2.14687e-014 -4.35338e-014
lhumerus 58.7765 -18.7068 11.983
lradius 45.6731
lwrist 14.3523
lhand -29.996 -19.0611
lfingers 7.12502
lthumb -3.31356 10.8929
rfemur -91.5833 -54.1204 14.767
rtibia 129.701
rfoot -16.3277 28.4814
rtoes -13.2795
lfemur -97.8062 36.2254 -33.6601
ltibia 129.897
lfoot -33.961 -3.50218
ltoes -22.9526
349
root -23.7921 10.0915 0.167884 211.596 82.023 185.081
lowerback 45.0748 2.12284 0.0855962
upperback 11.0059 4.02997 -2.76168
thorax -8.32856 2.61007 -4.83804
lowerneck -34.1319 -6.12702 -5.1064
upperneck 3.80225 -5.53781 1.9256
head 6.40043 -2.32706 0.674645
rclavicle -5.1684e-014 1.08735e-013
rhumerus 43.4501 -13.4281 -87.8299
rradius 12.5363
rwrist 12.2563
rhand -27.3382 -37.0224
rfingers 7.12502
rthumb -0.746767 652.999
lclavicle -5.1684e-014 1.08735e-013
lhumerus 57.6573 -18.8819 11.5242
lradius 46.3103
lwrist 14.4266
lhand -30.1686 -19.2609
lfingers 7.12502
lthumb -3.48029 10.6904
rfemur -95.6126 -53.6522 16.7595
rtibia 129.911
rfoot -15.7711 28.3397
rtoes -12.2311
lfemur -100.232 36.4624 -34.8311
ltibia 130.701
lfoot -33.8735 -3.15694
ltoes -22.2023
350
root -23.8732 9.96726 0.193226 213.889 82.1445 186.773
lowerback 43.1045 2.38824 -0.0851651
upperback 11.1999 4.28025 -2.4798
thorax -7.57992 2.70959 -4.4546
lowerneck -34.1661 -6.2888 -5.53405
upperneck 3.84855 -5.60995 2.20414
head 6.44252 -2.34143 0.822254
rclavicle 7.95139e-015 6.67916e-014
rhumerus 43.4463 -12.8832 -87.0058
rradius 12.759
rwrist 11.4287
rhand -27.3583 -37.0453
rfingers 7.12502
rthumb -0.766182 652.976
lclavicle 7.95139e-015 6.67916e-014
lhumerus 56.5826 -18.7865 11.4266
lradius 46.7789
lwrist 14.7075
lhand -29.762 -19.2301
lfingers 7.12502
lthumb -3.0876 10.7273
rfemur -99.6784 -52.7518 18.7398
rtibia 130.111
rfoot -14.9942 28.2676
rtoes -11.4391
lfemur -102.405 36.9872 -36.0274
ltibia 131.601
lfoot -33.7646 -2.83518
ltoes -19.6301
351
root -23.9489 9.85763 0.2218 215.458 82.2634 187.932
lowerback 41.3875 2.61541 -0.302677
upperback 11.3588 4.4701 -2.28903
thorax -6.9163 2.78618 -4.12727
lowerneck -34.1727 -6.35181 -5.67619
upperneck 3.91817 -5.64471 2.25731
head 6.47352 -2.35728 0.855489
rclavicle 6.36111e-014 -5.92378e-014
rhumerus 43.6219 -12.545 -86.5819
rradius 12.6549
rwrist 11.003
rhand -27.301 -37.2318
rfingers 7.12502
rthumb -0.710838 652.79
lclavicle 6.36111e-014 -5.92378e-014
lhumerus 55.6682 -18.6515 11.4057
lradius 47.0416
lwrist 15.093
lhand -29.6325 -19.1738
lfingers 7.12502
lthumb -2.96256 10.7853
rfemur -102.598 -51.4468 20.2509
rtibia 129.91
rfoot -14.2558 28.4721
rtoes -10.2229
lfemur -105.086 36.9032 -37.2958
ltibia 132.523
lfoot -33.7354 -1.12148
ltoes -23.6778
352
root -24.0189 9.72269 0.262552 215.904 82.4276 188.2
lowerback 40.0135 2.80407 -0.629416
upperback 11.4751 4.57822 -2.17056
thorax -6.38827 2.82682 -3.80269
lowerneck -34.2642 -6.36202 -5.76017
upperneck 4.06946 -5.62181 2.2547
head 6.53778 -2.35022 0.867325
rclavicle -2.62396e-014 8.42847e-014
rhumerus 43.7703 -12.5329 -86.8069
rradius 12.493
rwrist 11.3267
rhand -27.4407 -37.1279
rfingers 7.12502
rthumb -0.845758 652.894
lclavicle -2.62396e-014 8.42847e-014
lhumerus 54.6572 -18.4095 11.4676
lradius 47.3453
lwrist 15.4402
lhand -30.0629 -19.1704
lfingers 7.12502
lthumb -3.37822 10.7826
rfemur -105.068 -50.4964 21.5445
rtibia 129.963
rfoot -14.3834 29.0825
rtoes -10.7753
lfemur -107.418 37.2871 -38.4362
ltibia 133.663
lfoot -33.9445 -1.14764
ltoes -25.3245
